<?xml version="1.0" encoding="utf-8"?>
<!-- Generator: Adobe Illustrator 23.0.3, SVG Export Plug-In . SVG Version: 6.00 Build 0)  -->
<svg version="1.1" id="Calque_1" xmlns="http://www.w3.org/2000/svg" xmlns:xlink="http://www.w3.org/1999/xlink" x="0px" y="0px"
	 viewBox="0 0 1024 1024" style="enable-background:new 0 0 1024 1024;" xml:space="preserve">
<style type="text/css">
	.st0{display:none;}
	.st1{display:inline;}
	.st2{fill:#FFFFFF;}
	.st3{fill:url(#SVGID_1_);}
	.st4{fill:url(#SVGID_2_);}
	.st5{display:inline;fill:url(#SVGID_3_);}
	.st6{display:inline;fill:url(#SVGID_4_);}
	.st7{opacity:0.97;}
	.st8{fill:url(#SVGID_5_);}
</style>
<g id="Fond_sombre" class="st0">
	<rect class="st1" width="1024" height="1024"/>
	<g class="st1">
		<path class="st2" d="M104.9,547.9c0-22,0.1-44.1-0.1-66.1c0-3.7,1-5.8,4.6-7.1c32.1-11.6,64.6-17.4,98.2-7.2
			c9.2,2.8,17.3,7.7,23.8,14.9c2.3,2.5,3.7,3.2,6.6,0.2c16.6-17.6,37.6-22.3,60.7-19.6c9.3,1.1,18.2,3.6,26.5,8.3
			c17.8,10.3,26.3,26.2,26.7,46.2c0.5,32.2,0.1,64.4,0.2,96.6c0,4.1-1.1,5.5-5.4,5.4c-10.3-0.3-20.7-0.3-31,0
			c-4.3,0.1-5.6-0.6-5.5-5.3c0.3-29,0.2-58.1,0.1-87.1c0-10.6-3.2-20.1-12.8-26.2c-18.2-11.5-43.4-0.3-47.2,20.9
			c-1.1,6.3-1.6,12.5-1.6,18.9c0.1,24.9,0,49.7,0.1,74.6c0,3.3-0.6,4.3-4.1,4.2c-10.8-0.3-21.7-0.3-32.5,0c-4.3,0.1-5-1.5-5-5.2
			c0.1-27.5,0.1-55.1,0.1-82.6c0-6.4-0.8-12.7-3.3-18.5c-3.9-9.3-11.4-14.4-21-15.7c-10.6-1.4-21.2-1.1-31.5,2.9
			c-3.7,1.5-5,3.3-5,7.3c0.1,35.5,0,71.1,0.2,106.6c0,4.2-1,5.3-5.2,5.1c-10.5-0.3-21-0.3-31.5,0c-4,0.1-5.2-1-5.2-5
			C104.9,592.3,104.9,570.1,104.9,547.9z"/>
		<path class="st2" d="M919.2,407.8c0-4.3-1.6-5.9-5.5-6.7c-5.9-1.2-11.8-2.4-17.8-1.7c-10.8,1.3-18.4,4.8-18.1,19
			c0.4,18,0.1,36,0,54c0,2.3,1.2,5.5-0.7,6.5c-2.4,1.4-3.5-2.3-5.4-3.4c-1.1-0.7-2.1-1.6-3.2-2.4c-16.1-11.1-33.9-13.3-52.5-8.8
			c-22,5.2-37.8,18.1-46.7,39.1c-7,16.4-7.9,33.5-5.3,51c2.8,19.4,10.9,35.8,26.1,48.4c16.7,13.8,36.7,18.3,57.5,19.7
			c21.5,1.4,42.9-0.1,64.3-2.8c7.2-0.9,7.2-0.8,7.2-8.3c0-33.5,0-67,0-100.6C919.1,476.5,919.1,442.1,919.2,407.8z M873.1,588.8
			c-12.1,2.3-24.2,2.6-36.2-0.6c-14.8-4-25-13.3-28.8-28.3c-4.6-17.6-4.4-35,6.3-50.8c8.5-12.5,21.2-15.5,35.2-13.6
			c12.3,1.7,20.2,9.1,24.9,20.5c2.8,6.8,3.4,13.9,3.5,21c0.1,6.5,0,13,0,19.5c0,8.8-0.2,17.7,0.1,26.5
			C878.1,586.8,876.8,588.1,873.1,588.8z"/>
		
			<linearGradient id="SVGID_1_" gradientUnits="userSpaceOnUse" x1="374.2422" y1="480.5094" x2="736.9315" y2="480.5094" gradientTransform="matrix(1 0 0 -1 0 1024)">
			<stop  offset="0" style="stop-color:#00CCFF"/>
			<stop  offset="1" style="stop-color:#1151F0"/>
		</linearGradient>
		<path class="st3" d="M736.9,541c-1.1-31.5-15-55.4-43.5-69.8c-18.2-9.2-37.6-11-57.4-7c-24.3,4.9-43.3,17.6-55.1,39.7
			c-9.2,17.2-11.4,35.5-8.3,54.7c2.8,17.3,10.2,32.4,23.1,44.3c16.5,15.3,36.4,22.1,60.4,22c4.2,0.3,9.8-0.5,15.3-1.5
			c17.5-3.2,32.7-11,44.9-24.1C731.5,582.8,737.6,563,736.9,541z M687.5,573.6c-8.7,15.1-22.9,20.3-39.7,18.1
			c-15.4-2.1-25.5-11.5-30.9-25.8c-2.7-7.2-3.9-14.8-3.7-22.5c0.3-12.9,2.7-25.2,11.4-35.3c17.3-20.3,54.1-17.2,65.5,10.3
			C697.8,536.9,697.8,555.8,687.5,573.6z"/>
		
			<linearGradient id="SVGID_2_" gradientUnits="userSpaceOnUse" x1="379.2435" y1="480.4399" x2="741.9327" y2="480.4399" gradientTransform="matrix(1 0 0 -1 0 1024)">
			<stop  offset="0" style="stop-color:#00CCFF"/>
			<stop  offset="1" style="stop-color:#1151F0"/>
		</linearGradient>
		<path class="st4" d="M543.2,523c-3.2-14.8-10.3-27.7-21.5-38.1c-18.5-17.3-40.8-23.9-65.6-22.4c-21.4,1.3-40.7,8.9-55,24.9
			c-23.3,26.2-27.7,56.8-14.8,88.9c13.3,33.2,40.6,46.7,71.3,48.6h4.2c28.5-0.8,50.4-9.7,66.6-30C545.3,573.6,548.8,549,543.2,523z
			 M503.6,542.4c0.1,11.1-1.5,20.7-6.3,29.3c-8.3,14.9-21.2,21.6-38.1,20.3c-16.3-1.2-27.5-10-33.2-24.8c-6.5-16.8-6.3-34,1.5-50.5
			c6.2-13.1,19.6-23.3,40.4-21.4c13.7,1.2,27.4,12,32.2,26.4C502.5,528.8,504.1,536.1,503.6,542.4z"/>
	</g>
</g>
<g id="Fond_clair" class="st0">
	
		<linearGradient id="SVGID_3_" gradientUnits="userSpaceOnUse" x1="0" y1="512" x2="1024" y2="512" gradientTransform="matrix(1 0 0 -1 0 1024)">
		<stop  offset="0" style="stop-color:#00CCFF"/>
		<stop  offset="1" style="stop-color:#1141F0"/>
	</linearGradient>
	<rect class="st5" width="1024" height="1024"/>
	
		<linearGradient id="SVGID_4_" gradientUnits="userSpaceOnUse" x1="0" y1="512" x2="2231.3198" y2="512" gradientTransform="matrix(1 0 0 -1 0 1024)">
		<stop  offset="0" style="stop-color:#00CCFF"/>
		<stop  offset="1" style="stop-color:#1141F0"/>
	</linearGradient>
	<rect class="st6" width="1024" height="1024"/>
	<g class="st1">
		<path d="M104.9,547.9c0-22,0.1-44.1-0.1-66.1c0-3.7,1-5.8,4.6-7.1c32.1-11.6,64.6-17.4,98.2-7.2c9.2,2.8,17.3,7.7,23.8,14.9
			c2.3,2.5,3.7,3.2,6.6,0.2c16.6-17.6,37.6-22.3,60.7-19.6c9.3,1.1,18.2,3.6,26.5,8.3c17.8,10.3,26.3,26.2,26.7,46.2
			c0.5,32.2,0.1,64.4,0.2,96.6c0,4.1-1.1,5.5-5.4,5.4c-10.3-0.3-20.7-0.3-31,0c-4.3,0.1-5.6-0.6-5.5-5.3c0.3-29,0.2-58.1,0.1-87.1
			c0-10.6-3.2-20.1-12.8-26.2c-18.2-11.5-43.4-0.3-47.2,20.9c-1.1,6.3-1.6,12.5-1.6,18.9c0.1,24.9,0,49.7,0.1,74.6
			c0,3.3-0.6,4.3-4.1,4.2c-10.8-0.3-21.7-0.3-32.5,0c-4.3,0.1-5-1.5-5-5.2c0.1-27.5,0.1-55.1,0.1-82.6c0-6.4-0.8-12.7-3.3-18.5
			c-3.9-9.3-11.4-14.4-21-15.7c-10.6-1.4-21.2-1.1-31.5,2.9c-3.7,1.5-5,3.3-5,7.3c0.1,35.5,0,71.1,0.2,106.6c0,4.2-1,5.3-5.2,5.1
			c-10.5-0.3-21-0.3-31.5,0c-4,0.1-5.2-1-5.2-5C104.9,592.3,104.9,570.1,104.9,547.9z"/>
		<path d="M919.2,407.8c0-4.3-1.6-5.9-5.5-6.7c-5.9-1.2-11.8-2.4-17.8-1.7c-10.8,1.3-18.4,4.8-18.1,19c0.4,18,0.1,36,0,54
			c0,2.3,1.2,5.5-0.7,6.5c-2.4,1.4-3.5-2.3-5.4-3.4c-1.1-0.7-2.1-1.6-3.2-2.4c-16.1-11.1-33.9-13.3-52.5-8.8
			c-22,5.2-37.8,18.1-46.7,39.1c-7,16.4-7.9,33.5-5.3,51c2.8,19.4,10.9,35.8,26.1,48.4c16.7,13.8,36.7,18.3,57.5,19.7
			c21.5,1.4,42.9-0.1,64.3-2.8c7.2-0.9,7.2-0.8,7.2-8.3c0-33.5,0-67,0-100.6C919.1,476.5,919.1,442.1,919.2,407.8z M873.1,588.8
			c-12.1,2.3-24.2,2.6-36.2-0.6c-14.8-4-25-13.3-28.8-28.3c-4.6-17.6-4.4-35,6.3-50.8c8.5-12.5,21.2-15.5,35.2-13.6
			c12.3,1.7,20.2,9.1,24.9,20.5c2.8,6.8,3.4,13.9,3.5,21c0.1,6.5,0,13,0,19.5c0,8.8-0.2,17.7,0.1,26.5
			C878.1,586.8,876.8,588.1,873.1,588.8z"/>
		<path class="st2" d="M736.9,541c-1.1-31.5-15-55.4-43.5-69.8c-18.2-9.2-37.6-11-57.4-7c-24.3,4.9-43.3,17.6-55.1,39.7
			c-9.2,17.2-11.4,35.5-8.3,54.7c2.8,17.3,10.2,32.4,23.1,44.3c16.5,15.3,36.4,22.1,60.4,22c4.2,0.3,9.8-0.5,15.3-1.5
			c17.5-3.2,32.7-11,44.9-24.1C731.5,582.8,737.6,563,736.9,541z M687.5,573.6c-8.7,15.1-22.9,20.3-39.7,18.1
			c-15.4-2.1-25.5-11.5-30.9-25.8c-2.7-7.2-3.9-14.8-3.7-22.5c0.3-12.9,2.7-25.2,11.4-35.3c17.3-20.3,54.1-17.2,65.5,10.3
			C697.8,536.9,697.8,555.8,687.5,573.6z"/>
		<path class="st2" d="M543.2,523c-3.2-14.8-10.3-27.7-21.5-38.1c-18.5-17.3-40.8-23.9-65.6-22.4c-21.4,1.3-40.7,8.9-55,24.9
			c-23.3,26.2-27.7,56.8-14.8,88.9c13.3,33.2,40.6,46.7,71.3,48.6h4.2c28.5-0.8,50.4-9.7,66.6-30C545.3,573.6,548.8,549,543.2,523z
			 M503.6,542.4c0.1,11.1-1.5,20.7-6.3,29.3c-8.3,14.9-21.2,21.6-38.1,20.3c-16.3-1.2-27.5-10-33.2-24.8c-6.5-16.8-6.3-34,1.5-50.5
			c6.2-13.1,19.6-23.3,40.4-21.4c13.7,1.2,27.4,12,32.2,26.4C502.5,528.8,504.1,536.1,503.6,542.4z"/>
	</g>
</g>
<g id="Fond_blanc" class="st7">
	<g>
		<linearGradient id="SVGID_5_" gradientUnits="userSpaceOnUse" x1="19.1006" y1="504.4182" x2="993.3985" y2="519.7373">
			<stop  offset="0" style="stop-color:#00CCFF"/>
			<stop  offset="1" style="stop-color:#4171E8"/>
		</linearGradient>
		<path class="st8" d="M1008.7,382.6c-19.7-93.2-63.4-174.3-132-240.2C763,33.1,625.8-8.2,473.3,1.3
			c-131.6,8.3-250.4,55.8-338.4,157C-8.4,323.2-35.5,516.2,43.8,718c82.1,209,249.6,294.1,438.7,306h25.6
			c175.4-5.4,310-61,409.7-189.1C1021.8,701.2,1043.3,546.4,1008.7,382.6z M765.3,504.5c0.7,70.1-9.2,130.1-38.6,184.3
			C675.7,782.5,596,824.6,492,816.7c-100.2-7.6-169-63.1-204.3-156.3c-40-105.8-38.5-213.9,9.4-317.9
			c38.1-82.7,120.6-146.7,248.6-134.8c84.4,7.8,168.8,75.9,198,166.3C758.3,418.8,768.2,464.9,765.3,504.5z"/>
	</g>
</g>
</svg>
