<svg id="Fond_blanc" data-name="Fond blanc" xmlns="http://www.w3.org/2000/svg" xmlns:xlink="http://www.w3.org/1999/xlink" viewBox="0 0 882.21 251.39"><defs><style>.cls-1{fill:url(#Dégradé_sans_nom_13);}.cls-2{stroke:#000;stroke-miterlimit:10;stroke-width:2.21px;}</style><linearGradient id="Dégradé_sans_nom_13" x1="366.19" y1="223.9" x2="755.12" y2="223.9" gradientUnits="userSpaceOnUse"><stop offset="0" stop-color="#0cf"/><stop offset="0.16" stop-color="#02bffd"/><stop offset="0.47" stop-color="#079bf9"/><stop offset="0.88" stop-color="#0f63f2"/><stop offset="1" stop-color="#1151f0"/></linearGradient></defs><title>logo</title><g id="texte-v2"><path class="cls-1" d="M525.26,161a88.71,88.71,0,0,0-29-18.41,100.88,100.88,0,0,0-72,0,88.5,88.5,0,0,0-29,18.41A85.09,85.09,0,0,0,376,188.89a87.09,87.09,0,0,0-7,35,86.22,86.22,0,0,0,7,34.67,84.88,84.88,0,0,0,19.24,27.87,90.57,90.57,0,0,0,29,18.58,98.67,98.67,0,0,0,72,0,90.79,90.79,0,0,0,29-18.58,85,85,0,0,0,19.24-27.87,86.39,86.39,0,0,0,7-34.67,87.26,87.26,0,0,0-7-35A85.24,85.24,0,0,0,525.26,161ZM508.17,245.3a55.32,55.32,0,0,1-10.62,17.25,47.05,47.05,0,0,1-16.42,11.61,55.13,55.13,0,0,1-42,0,47.37,47.37,0,0,1-16.26-11.61,55,55,0,0,1-10.62-17.25,58.49,58.49,0,0,1-3.81-21.4,61.24,61.24,0,0,1,3.81-21.74,52.09,52.09,0,0,1,10.62-17.41,48.59,48.59,0,0,1,16.26-11.45,55.13,55.13,0,0,1,42,0,48.26,48.26,0,0,1,16.42,11.45,52.41,52.41,0,0,1,10.62,17.41A61.24,61.24,0,0,1,512,223.9,58.49,58.49,0,0,1,508.17,245.3Z" transform="translate(-70.89 -61.54)"/><path class="cls-1" d="M727.18,161a88.66,88.66,0,0,0-29-18.41,100.91,100.91,0,0,0-72,0,88.56,88.56,0,0,0-29,18.41,85.12,85.12,0,0,0-19.25,27.87,87.26,87.26,0,0,0-7,35,86.38,86.38,0,0,0,7,34.67,84.91,84.91,0,0,0,19.25,27.87,90.64,90.64,0,0,0,29,18.58,98.69,98.69,0,0,0,72,0,90.74,90.74,0,0,0,29-18.58,84.88,84.88,0,0,0,19.24-27.87,86.22,86.22,0,0,0,7-34.67,87.09,87.09,0,0,0-7-35A85.09,85.09,0,0,0,727.18,161ZM710.09,245.3a55.11,55.11,0,0,1-10.61,17.25,47.19,47.19,0,0,1-16.43,11.61,55.13,55.13,0,0,1-42,0,47.46,47.46,0,0,1-16.26-11.61A55.32,55.32,0,0,1,614.2,245.3a58.49,58.49,0,0,1-3.81-21.4,61.24,61.24,0,0,1,3.81-21.74,52.41,52.41,0,0,1,10.62-17.41,48.69,48.69,0,0,1,16.26-11.45,55.13,55.13,0,0,1,42,0,48.4,48.4,0,0,1,16.43,11.45,52.23,52.23,0,0,1,10.61,17.41,61.24,61.24,0,0,1,3.82,21.74A58.49,58.49,0,0,1,710.09,245.3Z" transform="translate(-70.89 -61.54)"/><path class="cls-2" d="M72,200q0-15.93,5.64-27.87a56.09,56.09,0,0,1,15.43-19.91,68.45,68.45,0,0,1,23.06-12.11A96.4,96.4,0,0,1,145,136q20.58,0,36.83,7.63a61,61,0,0,1,25.88,22.57,61.45,61.45,0,0,1,25.55-22.57Q249.18,136,269.42,136A99,99,0,0,1,298,140a64.59,64.59,0,0,1,22.89,12,57.08,57.08,0,0,1,15.27,19.91q5.63,11.94,5.64,27.87v107.5H303.92V212.62q0-22.91-10.28-32.69t-27.87-9.78q-16.92,0-28.37,10.95T226,216.6v90.58H188.13V216.6q0-24.56-11.45-35.5t-28.37-10.95q-17.25,0-27.87,9.95T109.82,213v94.23H72Z" transform="translate(-70.89 -61.54)"/><path class="cls-2" d="M914.51,80.23q0-9,5.14-13.27t14.76-4.31a37.76,37.76,0,0,1,11,1.49c3.32,1,5.53,1.72,6.64,2.16V215.93q0,24.23-6.8,42.14t-18.75,29.86a76.75,76.75,0,0,1-28.2,17.92,102.29,102.29,0,0,1-35.5,6,95.27,95.27,0,0,1-36-6.63,87,87,0,0,1-28.37-18.25,83,83,0,0,1-18.75-27.87,90.28,90.28,0,0,1-6.8-35.17,94,94,0,0,1,6.47-35.34,85.19,85.19,0,0,1,17.92-27.87,80.59,80.59,0,0,1,26.87-18.25A86.29,86.29,0,0,1,857.77,136q19.25,0,33.84,7.47t22.9,18.08Zm0,143.67a58.94,58.94,0,0,0-3.82-21.24,54.26,54.26,0,0,0-10.45-17.25A47.16,47.16,0,0,0,884.15,174a54.3,54.3,0,0,0-41.64,0,50.37,50.37,0,0,0-16.09,11.28A48.6,48.6,0,0,0,816,202.33a62.06,62.06,0,0,0-3.65,21.57A60.63,60.63,0,0,0,816,245.3a48.87,48.87,0,0,0,10.45,16.92,50.06,50.06,0,0,0,16.09,11.28,50.64,50.64,0,0,0,20.9,4.15,53,53,0,0,0,20.74-4,47.45,47.45,0,0,0,16.09-10.95,50.4,50.4,0,0,0,10.45-16.92A60.82,60.82,0,0,0,914.51,223.9Z" transform="translate(-70.89 -61.54)"/></g></svg>