<svg id="Fond_clair" data-name="Fond clair" xmlns="http://www.w3.org/2000/svg" viewBox="0 0 882.21 251.39"><defs><style>.cls-1{fill:#fff;stroke:#fff;}.cls-1,.cls-2{stroke-miterlimit:10;}.cls-2{stroke:#000;stroke-width:2.21px;}</style></defs><title>logo-blanc</title><g id="texte-v2"><path class="cls-1" d="M525.26,485.79a88.73,88.73,0,0,0-29-18.42,101,101,0,0,0-72,0,88.52,88.52,0,0,0-29,18.42A84.88,84.88,0,0,0,376,513.66a90.53,90.53,0,0,0,0,69.67,84.82,84.82,0,0,0,19.24,27.88,90.74,90.74,0,0,0,29,18.58,98.67,98.67,0,0,0,72,0,91,91,0,0,0,29-18.58,85,85,0,0,0,19.24-27.88,90.53,90.53,0,0,0,0-69.67A85,85,0,0,0,525.26,485.79Zm-17.09,84.27a55.25,55.25,0,0,1-10.62,17.26,47.18,47.18,0,0,1-16.42,11.61,55.13,55.13,0,0,1-42,0,47.5,47.5,0,0,1-16.26-11.61,54.88,54.88,0,0,1-10.62-17.26,58.45,58.45,0,0,1-3.81-21.4,61.18,61.18,0,0,1,3.81-21.73,52.23,52.23,0,0,1,10.62-17.42,48.73,48.73,0,0,1,16.26-11.45,55.25,55.25,0,0,1,42,0,48.4,48.4,0,0,1,16.42,11.45,52.56,52.56,0,0,1,10.62,17.42A61.18,61.18,0,0,1,512,548.66,58.45,58.45,0,0,1,508.17,570.06Z" transform="translate(-70.89 -386.31)"/><path class="cls-1" d="M727.18,485.79a88.69,88.69,0,0,0-29-18.42,101.05,101.05,0,0,0-72,0,88.58,88.58,0,0,0-29,18.42,84.91,84.91,0,0,0-19.25,27.87,90.65,90.65,0,0,0,0,69.67,84.85,84.85,0,0,0,19.25,27.88,90.81,90.81,0,0,0,29,18.58,98.69,98.69,0,0,0,72,0,90.92,90.92,0,0,0,29-18.58,84.82,84.82,0,0,0,19.24-27.88,90.53,90.53,0,0,0,0-69.67A84.88,84.88,0,0,0,727.18,485.79Zm-17.09,84.27a55,55,0,0,1-10.61,17.26,47.32,47.32,0,0,1-16.43,11.61,55.13,55.13,0,0,1-42,0,47.59,47.59,0,0,1-16.26-11.61,55.25,55.25,0,0,1-10.62-17.26,58.45,58.45,0,0,1-3.81-21.4,61.18,61.18,0,0,1,3.81-21.73,52.56,52.56,0,0,1,10.62-17.42,48.83,48.83,0,0,1,16.26-11.45,55.25,55.25,0,0,1,42,0,48.53,48.53,0,0,1,16.43,11.45,52.37,52.37,0,0,1,10.61,17.42,61.18,61.18,0,0,1,3.82,21.73A58.45,58.45,0,0,1,710.09,570.06Z" transform="translate(-70.89 -386.31)"/><path class="cls-2" d="M72,524.77q0-15.92,5.64-27.87A56.05,56.05,0,0,1,93.07,477a68.27,68.27,0,0,1,23.06-12.11A96.08,96.08,0,0,1,145,460.74q20.58,0,36.83,7.63a61.05,61.05,0,0,1,25.88,22.56,61.5,61.5,0,0,1,25.55-22.56q15.93-7.64,36.17-7.63a99,99,0,0,1,28.53,4,64.57,64.57,0,0,1,22.89,11.94,57.17,57.17,0,0,1,15.27,19.91q5.63,11.94,5.64,27.87v107.5H303.92V537.38q0-22.89-10.28-32.68t-27.87-9.79q-16.92,0-28.37,10.95T226,541.36v90.58H188.13V541.36q0-24.54-11.45-35.5t-28.37-10.95q-17.25,0-27.87,10t-10.62,32.84v94.23H72Z" transform="translate(-70.89 -386.31)"/><path class="cls-2" d="M914.51,405q0-9,5.14-13.27t14.76-4.32a37.75,37.75,0,0,1,11,1.5q5,1.48,6.64,2.15V540.7q0,24.22-6.8,42.14T926.45,612.7a77,77,0,0,1-28.2,17.92,102.29,102.29,0,0,1-35.5,6,95.27,95.27,0,0,1-36-6.64,86.66,86.66,0,0,1-28.37-18.25,83,83,0,0,1-18.75-27.87,90.25,90.25,0,0,1-6.8-35.17,94,94,0,0,1,6.47-35.33,85.08,85.08,0,0,1,17.92-27.87,80.44,80.44,0,0,1,26.87-18.25,86.11,86.11,0,0,1,33.68-6.47q19.25,0,33.84,7.46t22.9,18.09Zm0,143.66a58.89,58.89,0,0,0-3.82-21.23,54.2,54.2,0,0,0-10.45-17.26,47.13,47.13,0,0,0-16.09-11.44,54.3,54.3,0,0,0-41.64,0A50.37,50.37,0,0,0,826.42,510,48.6,48.6,0,0,0,816,527.1a62,62,0,0,0-3.65,21.56,60.59,60.59,0,0,0,3.65,21.4A48.78,48.78,0,0,0,826.42,587a50.24,50.24,0,0,0,16.09,11.29,50.8,50.8,0,0,0,20.9,4.14,52.84,52.84,0,0,0,20.74-4,47.16,47.16,0,0,0,16.09-10.95,50.2,50.2,0,0,0,10.45-16.92A60.75,60.75,0,0,0,914.51,548.66Z" transform="translate(-70.89 -386.31)"/></g></svg>